<?xml version="1.0" encoding="UTF-8"?>
<svg id="Layer_1" data-name="Layer 1" xmlns="http://www.w3.org/2000/svg" viewBox="0 0 500 500">
  <defs>
    <style>
      .cls-1 {
        fill: #000;
      }

      .cls-1, .cls-2 {
        stroke-width: 0px;
      }

      .cls-2 {
        fill: #fff;
      }
    </style>
  </defs>
  <g>
    <ellipse class="cls-2" cx="381.97" cy="149.62" rx="91.2" ry="83.24"/>
    <path class="cls-1" d="M381.97,243.86c-56.35,0-102.2-42.28-102.2-94.24s45.85-94.24,102.2-94.24,102.2,42.28,102.2,94.24-45.85,94.24-102.2,94.24ZM381.97,77.38c-44.22,0-80.2,32.41-80.2,72.24s35.98,72.24,80.2,72.24,80.2-32.41,80.2-72.24-35.98-72.24-80.2-72.24Z"/>
  </g>
  <g>
    <path class="cls-1" d="M224.6,301.08v156.09c0,3.22,2.61,5.83,5.83,5.83h39.46c3.22,0,5.83-2.61,5.83-5.83v-155.03c0-4.31,1.62-8.47,4.54-11.64l180.52-196.27c10.14-11.02-65.17-57.23-211.73-57.23S17.01,83.81,27.73,94.68l191.91,194.32c3.18,3.22,4.96,7.56,4.96,12.08Z"/>
    <path class="cls-1" d="M269.89,465.5h-39.46c-4.59,0-8.33-3.74-8.33-8.33v-156.09c0-3.89-1.51-7.56-4.24-10.33L25.95,96.43c-1-1.02-2.47-3.23-1.03-6.67,4.1-9.81,30.26-23.49,65.1-34.03,32-9.69,85.57-21.23,159.02-21.23s123.44,11.19,153.4,20.57c32.08,10.05,56.59,23.55,61,33.6,1.64,3.74.19,6.15-.83,7.25l-180.52,196.27c-2.5,2.72-3.88,6.25-3.88,9.95v155.03c0,4.59-3.74,8.33-8.33,8.33ZM249.04,39.5c-72.85,0-125.9,11.43-157.58,21.02-36.36,11.01-59.05,24.28-61.93,31.17-.37.88-.16,1.09-.02,1.23l191.91,194.32c3.66,3.71,5.68,8.62,5.68,13.84v156.09c0,1.83,1.49,3.33,3.33,3.33h39.46c1.83,0,3.33-1.49,3.33-3.33v-155.03c0-4.95,1.85-9.69,5.2-13.33l180.52-196.27c.15-.16.5-.55-.07-1.86-3.21-7.31-24.14-20.25-57.92-30.84-29.62-9.28-80.02-20.34-151.9-20.34Z"/>
  </g>
  <g>
    <path class="cls-2" d="M447.32,91.26c0,17.87-90.91,32.36-203.06,32.36s-203.06-14.49-203.06-32.36,89.49-47.16,201.64-47.16,204.48,29.29,204.48,47.16Z"/>
    <path class="cls-1" d="M244.26,126.12c-54.37,0-105.5-3.38-143.98-9.51-40.86-6.51-61.58-15.04-61.58-25.35,0-5.49,5.75-11.25,17.08-17.13,10.58-5.48,25.63-10.87,43.55-15.57,24.12-6.33,74.84-16.96,143.51-16.96s120.33,10.63,144.92,16.96c18.29,4.71,33.68,10.09,44.51,15.56,11.65,5.88,17.55,11.65,17.55,17.14,0,10.31-20.72,18.84-61.58,25.35-38.48,6.13-89.61,9.51-143.98,9.51ZM242.84,46.6c-68.11,0-118.35,10.52-142.24,16.8-39.09,10.27-56.9,21.64-56.9,27.87,0,1.46,1.4,5.38,14.34,10.25,10.07,3.79,24.55,7.21,43.03,10.16,38.23,6.09,89.08,9.45,143.19,9.45s104.96-3.35,143.19-9.45c18.48-2.94,32.96-6.36,43.03-10.16,12.94-4.88,14.34-8.8,14.34-10.25,0-6.19-18.25-17.54-58.31-27.86-24.36-6.27-75.42-16.8-143.67-16.8Z"/>
  </g>
</svg>