<?xml version="1.0" encoding="UTF-8"?>
<svg id="Layer_2" data-name="Layer 2" xmlns="http://www.w3.org/2000/svg" viewBox="0 0 139.14 75.24">
  <defs>
    <style>
      .cls-1 {
        fill: #000;
        stroke-width: 0px;
      }
    </style>
  </defs>
  <g id="Layer_1-2" data-name="Layer 1">
    <g id="infinity">
      <g>
        <path class="cls-1" d="M2.7,23.09c1.7-4.99,4.2-9.35,7.62-12.88C20.54-.36,32.17-2.42,44.85,2.97c6.56,2.79,12.17,7.5,17.15,13.09,6.22,6.98,12.17,14.28,18.24,21.43,6.09,7.17,12.47,13.95,20.15,18.8,6.32,3.99,13,6.26,20.27,5.39,6.22-.74,11.56-3.54,15.52-9.38.06-.09.16-.14.45-.07-.76,1.66-1.45,3.38-2.3,4.98-8.88,16.68-26.32,22.48-42.18,14.05-6.49-3.45-12.05-8.48-17.09-14.25-5.62-6.43-11.01-13.13-16.54-19.66-5.68-6.72-11.63-13.07-18.75-17.74-7.05-4.62-14.53-7.04-22.66-5.84-5.84.87-10.74,3.8-14.41,9.32Z"/>
        <path class="cls-1" d="M32.73,17.3c-1.77.31-3.55.41-5.23.95-6.56,2.14-10.73,7.16-12.07,14.92-1.38,7.99.32,15.11,5.97,20.29,5.4,4.96,11.53,5.64,17.75,2.42,4.14-2.14,7.68-5.53,11.1-8.99,2.57-2.59,5.03-5.31,7.68-8.11,3.52,4.3,7.06,8.62,10.81,13.21-1,1.07-1.99,2.08-2.93,3.14-5.25,5.91-10.72,11.53-17.35,15.27-12.25,6.92-24.26,6.77-35.46-2.8C4.48,60.3.05,50.16,0,37.72c-.05-12.18,7.01-21.29,17.41-22.79,5-.72,11.42.26,15.32,2.36Z"/>
        <path class="cls-1" d="M81.23,36.52c-3.57-4.36-7.09-8.66-10.6-12.94.02-.15,0-.27.04-.32,5.93-7.11,12.16-13.8,19.83-18.33,9.11-5.38,18.61-6.75,28.17-2.14,12.57,6.06,19.44,17.36,20.41,33.16.75,12.17-5.25,21.13-15.48,23.84-5.95,1.58-11.75.66-17.42-2.07.47,0,.95.01,1.42,0,.48-.02.96-.04,1.44-.11,7.02-1.14,12.01-5.44,14.16-13.35,2.15-7.92,1.01-15.37-4.29-21.25-5.24-5.82-11.54-6.92-18.26-3.98-4.22,1.84-7.64,5.23-11.01,8.59-2.58,2.57-5.03,5.33-7.54,8-.26.28-.52.55-.87.91Z"/>
      </g>
    </g>
  </g>
</svg>