<?xml version="1.0" encoding="UTF-8"?>
<svg id="Layer_2" data-name="Layer 2" xmlns="http://www.w3.org/2000/svg" viewBox="0 0 440.49 77.31">
  <defs>
    <style>
      .cls-1 {
        fill: #231f20;
        stroke-width: 0px;
      }
    </style>
  </defs>
  <g id="Layer_1-2" data-name="Layer 1">
    <g id="thperiod">
      <path class="cls-1" d="M7.78,13.2c0-.89.29-1.55.88-2,.59-.44,1.43-.87,2.52-1.27l9.76-3.4c.14-.03.28-.04.41-.04h.37c1.06,0,1.77.31,2.13.92.36.62.54,1.43.54,2.43l-.04,11.83h5.89c.92,0,1.66.27,2.24.82.57.54.86,1.36.86,2.45v8.3c0,1.2-.29,2.09-.86,2.64-.57.56-1.32.84-2.24.84h-5.89l.04,36.29c0,1.09-.32,1.91-.95,2.47-.63.56-1.5.84-2.62.84h-9.72c-2.21,0-3.31-1.1-3.31-3.31l-.04-36.29H3.31c-2.21,0-3.31-1.16-3.31-3.48v-8.3c0-2.18,1.1-3.27,3.31-3.27h4.43l.04-8.47Z"/>
      <path class="cls-1" d="M57.92,27.46c.54-.8,1.3-1.59,2.26-2.38.96-.79,2.06-1.49,3.31-2.1,1.25-.61,2.63-1.11,4.15-1.5,1.52-.39,3.12-.58,4.82-.58,3.27,0,6.1.63,8.49,1.89,2.39,1.26,4.37,2.97,5.93,5.15s2.72,4.71,3.48,7.62c.76,2.91,1.14,6.01,1.14,9.3v28.17c0,1.09-.24,1.91-.71,2.47s-1.23.84-2.26.84h-9.93c-1.23,0-2.08-.21-2.54-.62-.46-.42-.69-1.23-.69-2.43v-28.42c0-1.23-.24-2.38-.71-3.44-.47-1.06-1.11-1.98-1.91-2.77-.8-.79-1.74-1.4-2.82-1.85-1.07-.44-2.21-.67-3.42-.67-1.03,0-2.04.21-3.03.62-.99.42-1.88,1-2.67,1.76-.79.76-1.45,1.67-1.98,2.73-.53,1.06-.84,2.24-.92,3.53v28.38c0,.49-.09.98-.28,1.46-.19.49-.47.86-.84,1.12-.37.23-.72.39-1.05.47-.33.09-.71.13-1.14.13h-9.72c-1.23,0-2.12-.3-2.67-.9-.54-.6-.82-1.4-.82-2.41V8.75c0-.97.27-1.76.82-2.37.54-.6,1.43-.9,2.67-.9h9.72c.66,0,1.39.23,2.19.69.37.26.65.63.84,1.12.19.49.28.95.28,1.38v18.79Z"/>
      <path class="cls-1" d="M129.73,14.45c0-.6.16-1.08.47-1.44.31-.36.79-.54,1.42-.54h27.48c1.98,0,3.84.27,5.59.82,1.75.54,3.35,1.3,4.82,2.26s2.78,2.11,3.96,3.44c1.18,1.33,2.17,2.77,2.99,4.32.82,1.55,1.44,3.18,1.87,4.88.43,1.71.65,3.43.65,5.18,0,2.58-.47,5.1-1.4,7.57-.93,2.47-2.26,4.66-3.98,6.58-1.72,1.92-3.78,3.48-6.19,4.67-2.41,1.19-5.07,1.8-8,1.83h-13.03v20.47c0,1.23-.66,1.85-1.98,1.85h-12.77c-.57,0-1.03-.15-1.38-.45-.34-.3-.52-.77-.52-1.4V14.45ZM162.11,33.28c0-.86-.15-1.72-.45-2.58-.3-.86-.74-1.63-1.31-2.3-.57-.67-1.27-1.23-2.09-1.66-.82-.43-1.74-.65-2.77-.65h-9.12v14.36h9.12c1.03,0,1.96-.21,2.8-.62.83-.42,1.53-.95,2.09-1.61.56-.66.99-1.42,1.29-2.28.3-.86.45-1.75.45-2.67Z"/>
      <path class="cls-1" d="M230.74,69.79c-2.52,2.32-5.36,4.14-8.51,5.44-3.15,1.3-6.49,1.96-10.02,1.96-3.93,0-7.64-.72-11.14-2.15-3.5-1.43-6.56-3.42-9.2-5.96-2.64-2.54-4.73-5.53-6.28-8.97-1.55-3.44-2.32-7.18-2.32-11.22,0-2.52.31-4.97.92-7.33.62-2.36,1.49-4.58,2.62-6.64,1.13-2.06,2.51-3.96,4.13-5.7,1.62-1.73,3.43-3.22,5.44-4.45,2.01-1.23,4.19-2.19,6.54-2.88s4.83-1.03,7.44-1.03c2.38,0,4.69.32,6.92.95,2.24.63,4.34,1.52,6.3,2.67,1.96,1.15,3.76,2.52,5.4,4.13,1.63,1.61,3.04,3.36,4.21,5.27,1.17,1.91,2.08,3.94,2.73,6.11.64,2.16.97,4.39.97,6.69,0,1.49-.02,2.71-.06,3.65-.04.95-.26,1.7-.67,2.26-.4.56-1.07.95-2,1.16-.93.22-2.3.32-4.11.32h-30.96c.29,1.83.87,3.37,1.74,4.6.87,1.23,1.88,2.21,3.03,2.95,1.15.73,2.36,1.25,3.65,1.57,1.29.32,2.51.47,3.66.47,1.03,0,2.09-.11,3.18-.32,1.09-.22,2.14-.5,3.16-.86,1.02-.36,1.95-.77,2.79-1.25.85-.47,1.53-.97,2.04-1.48.46-.37.85-.65,1.18-.84.33-.19.68-.28,1.05-.28s.75.13,1.14.39c.39.26.82.63,1.31,1.12l4.56,5.16c.31.37.52.71.6,1.01.09.3.13.61.13.92,0,.57-.16,1.07-.47,1.48-.32.42-.69.78-1.12,1.1ZM210.05,33.97c-1.12,0-2.2.22-3.25.67-1.05.44-2.03,1.04-2.95,1.78-.92.75-1.74,1.59-2.47,2.54-.73.95-1.33,1.91-1.78,2.88h21.97c-.6-1.12-1.25-2.15-1.96-3.1-.7-.95-1.5-1.78-2.41-2.49-.9-.72-1.94-1.27-3.1-1.68-1.16-.4-2.52-.6-4.06-.6Z"/>
      <path class="cls-1" d="M245.87,24.9c0-.54.1-1.02.3-1.42.2-.4.47-.73.8-.99.33-.26.7-.45,1.12-.58.42-.13.82-.19,1.23-.19h6.49c.72,0,1.29.21,1.72.65.43.43.79.97,1.1,1.63.3.66.57,1.39.8,2.19.23.8.5,1.58.82,2.32.86-.95,1.71-1.88,2.56-2.79s1.76-1.73,2.73-2.45c.97-.72,2.04-1.3,3.2-1.74,1.16-.44,2.49-.67,3.98-.67s2.93.12,4.15.34c1.22.23,2.37.57,3.46,1.01,1.09.44,2.17,1.01,3.25,1.7s2.24,1.49,3.5,2.41c1.23.72,1.85,1.56,1.85,2.54,0,.63-.24,1.36-.73,2.19l-3.91,6.67c-.77,1.12-1.73,1.68-2.88,1.68-.57,0-1.22-.16-1.93-.47-1.23-1.2-2.49-2.1-3.76-2.69-1.28-.59-2.73-.88-4.36-.88-1.12,0-2.1.16-2.95.47-.85.32-1.61.76-2.3,1.33-.69.57-1.33,1.26-1.94,2.06-.6.8-1.2,1.69-1.81,2.67v31.13c0,1.09-.27,1.91-.79,2.47-.53.56-1.41.84-2.64.84h-9.68c-2.24,0-3.35-1.1-3.35-3.31V24.9Z"/>
      <path class="cls-1" d="M295.32,3.31c0-1.2.26-2.06.77-2.56.52-.5,1.32-.75,2.41-.75h9.98c1,0,1.81.25,2.43.75s.92,1.35.92,2.56v8.39c0,.34-.08.72-.24,1.12-.16.4-.38.79-.67,1.16-.29.37-.64.68-1.05.92-.42.24-.88.37-1.4.37h-9.98c-2.12,0-3.18-1.19-3.18-3.57V3.31ZM295.32,25.07c0-.92.26-1.71.77-2.37.52-.66,1.32-.99,2.41-.99h9.85c.34,0,.72.08,1.12.24.4.16.77.39,1.12.69.34.3.64.65.88,1.05.24.4.37.86.37,1.38v47.94c0,1.09-.3,1.91-.9,2.47-.6.56-1.46.84-2.58.84h-9.85c-2.12,0-3.18-1.1-3.18-3.31V25.07Z"/>
      <path class="cls-1" d="M320.48,49.06c0-2.64.34-5.17,1.01-7.61.67-2.44,1.62-4.69,2.84-6.77,1.22-2.08,2.68-3.97,4.39-5.68,1.71-1.71,3.6-3.16,5.7-4.36,2.09-1.2,4.35-2.14,6.77-2.79,2.42-.66,4.95-.99,7.59-.99,3.9,0,7.56.72,10.99,2.17,3.42,1.45,6.41,3.44,8.94,5.98,2.54,2.54,4.54,5.52,6.02,8.94,1.48,3.43,2.21,7.13,2.21,11.12,0,2.64-.34,5.17-1.01,7.59-.67,2.42-1.62,4.68-2.84,6.77-1.22,2.09-2.68,3.99-4.39,5.7-1.71,1.71-3.6,3.17-5.7,4.39-2.09,1.22-4.34,2.16-6.73,2.82s-4.9.99-7.5.99-5.17-.33-7.59-.99c-2.42-.66-4.68-1.6-6.77-2.82-2.09-1.22-3.99-2.68-5.7-4.39-1.71-1.71-3.17-3.6-4.39-5.7-1.22-2.09-2.16-4.35-2.84-6.77-.67-2.42-1.01-4.95-1.01-7.59ZM336.17,49.06c0,1.89.29,3.66.88,5.31.59,1.65,1.42,3.07,2.49,4.28,1.08,1.2,2.38,2.16,3.91,2.86,1.53.7,3.26,1.05,5.18,1.05s3.55-.35,5.05-1.05c1.5-.7,2.78-1.66,3.83-2.86,1.05-1.2,1.85-2.63,2.41-4.28.56-1.65.84-3.42.84-5.31s-.28-3.58-.84-5.25-1.36-3.12-2.41-4.39c-1.05-1.26-2.32-2.26-3.83-2.99s-3.19-1.1-5.05-1.1-3.65.37-5.18,1.1c-1.53.73-2.84,1.73-3.91,2.99-1.08,1.26-1.91,2.72-2.49,4.39-.59,1.66-.88,3.41-.88,5.25Z"/>
      <path class="cls-1" d="M424.41,70.95c-.77.77-1.66,1.54-2.64,2.3-.99.76-2.06,1.44-3.23,2.04-1.16.6-2.41,1.09-3.74,1.46-1.33.37-2.75.56-4.24.56-3.9,0-7.49-.73-10.77-2.19s-6.11-3.46-8.47-6c-2.37-2.54-4.21-5.53-5.55-8.97s-2-7.14-2-11.09.67-7.69,2-11.12c1.33-3.43,3.18-6.41,5.55-8.94,2.37-2.54,5.19-4.53,8.47-5.98,3.28-1.45,6.87-2.17,10.77-2.17,1.58,0,3.02.14,4.32.41,1.3.27,2.49.67,3.57,1.18,1.08.52,2.06,1.13,2.97,1.85.9.72,1.75,1.5,2.56,2.36V8.73c0-.92.28-1.69.84-2.32.56-.63,1.4-.95,2.52-.95h9.67c.37,0,.77.08,1.18.24.42.16.8.38,1.14.67.34.29.62.63.84,1.03.21.4.32.85.32,1.33v64.29c0,2.21-1.16,3.31-3.48,3.31h-8.43c-.57,0-1.02-.07-1.33-.21-.32-.14-.58-.35-.8-.62s-.41-.62-.58-1.03c-.17-.42-.39-.9-.65-1.44l-.82-2.06ZM399.25,49.06c0,1.89.29,3.66.88,5.31.59,1.65,1.43,3.07,2.52,4.28,1.09,1.2,2.4,2.16,3.93,2.86,1.53.7,3.23,1.05,5.09,1.05s3.56-.33,5.18-.99c1.62-.66,3.03-1.57,4.24-2.73s2.17-2.53,2.9-4.11c.73-1.58,1.14-3.27,1.23-5.07v-.6c0-1.83-.34-3.58-1.03-5.25-.69-1.66-1.64-3.12-2.86-4.39-1.22-1.26-2.65-2.26-4.3-2.99s-3.43-1.1-5.35-1.1-3.56.37-5.09,1.1c-1.53.73-2.85,1.73-3.93,2.99-1.09,1.26-1.93,2.72-2.52,4.39-.59,1.66-.88,3.41-.88,5.25Z"/>
    </g>
  </g>
</svg>